<?xml version="1.0" encoding="utf-8"?>
<!-- Generator: Adobe Illustrator 21.0.0, SVG Export Plug-In . SVG Version: 6.00 Build 0)  -->
<svg version="1.1" id="Ebene_1" xmlns="http://www.w3.org/2000/svg" xmlns:xlink="http://www.w3.org/1999/xlink" x="0px" y="0px"
	 width="799.347px" height="245.851px" viewBox="0 0 799.347 245.851" style="enable-background:new 0 0 799.347 245.851;"
	 xml:space="preserve">
<style type="text/css">
	.st0{fill:#00A8E1;}
	.st1{fill:#232F3E;}
	.st2{fill:#23303E;}
	.st3{fill:#24303F;}
	.st4{fill:#FFFFFF;}
	.st5{fill:#FEFEFE;}
</style>
<path class="st0" d="M0,37.951c1.6-1.8,3.7-2.1,6-2c3,0.1,6.1,0,9.1,0c2.7,0,3.7,0.9,4.5,3.4c0.3,1,0.5,2,0.8,3
	c0,0.1,0.2,0.2,0.4,0.3c0.9-0.3,1.4-1,2.1-1.5c9-6.7,18.9-9.1,29.9-6.7c9.6,2.2,15.9,8.5,20,17.1c2.2,4.7,3.4,9.8,3.9,15
	c0.7,8.4,0.5,16.8-2.2,24.9c-2.1,6.4-5.3,12.1-10.4,16.7c-6.7,6-14.7,8.2-23.5,7.3c-6.4-0.7-12.3-2.8-17.4-6.9
	c-0.7,0.6-0.4,1.4-0.4,2.1c0,9.5,0,19,0,28.5c0,6.2,0,6.2-6.3,6.2c-3.6,0-7.2-0.1-10.8,0c-2.3,0.1-4.3-0.3-5.6-2.4
	C0,108.051,0,73.051,0,37.951z"/>
<path class="st1" d="M798.253,89.741c-1.4,13.8-10.1,29.7-31.1,32.2c-6.3,0.8-12.6,0.6-18.8-1c-11.5-2.9-19.5-9.9-23.5-21
	c-4.6-12.5-4.7-25.3-0.1-37.8c4.7-12.8,14.4-20,27.9-22c6.4-0.9,12.8-0.9,19.1,0.7c13.5,3.4,21.8,12.1,25.5,25.3
	c0.5,1.8,0.9,3.7,1.1,5.6c0.2,0.3,0.2,0.6,0.2,0.9c0,0.3,0,0.6,0,1c0.1,0.5-0.2,1,0.2,1.5c0,3.8,0,7.7,0,11.5
	c-0.4,0.5-0.2,1.1-0.2,1.6C798.353,88.941,798.453,89.341,798.253,89.741z"/>
<path class="st1" d="M722.446,89.778c1.4,13.8,10.1,29.7,31.1,32.2c6.3,0.8,12.6,0.6,18.8-1c11.5-2.9,19.5-9.9,23.5-21
	c4.6-12.5,4.7-25.3,0.1-37.8c-4.7-12.8-14.4-20-27.9-22c-6.4-0.9-12.8-0.9-19.1,0.7c-13.5,3.4-21.8,12.1-25.5,25.3
	c-0.5,1.8-0.9,3.7-1.1,5.6c-0.2,0.3-0.2,0.6-0.2,0.9c0,0.3,0,0.6,0,1c-0.1,0.5,0.2,1-0.2,1.5c0,3.8,0,7.7,0,11.5
	c0.4,0.5,0.2,1.1,0.2,1.6C722.346,88.978,722.246,89.378,722.446,89.778z"/>
<path class="st0" d="M408.5,245.851c-4-0.1-8-0.1-12,0c-5.5-0.3-11-0.5-16.5-0.9c-14.6-1.1-29-3.3-43.3-6.6
	c-49.1-11.4-92.2-34.3-129.8-67.6c-3.5-3.1-6.8-6.3-10.2-9.5c-0.8-0.8-1.5-1.6-1.9-2.7c-0.5-1.5-0.4-2.9,0.7-4
	c1.1-1.2,2.4-1.4,4-0.9c0.9,0.3,1.7,0.8,2.6,1.3c36.1,22.4,74.9,38.2,116.2,48c13.8,3.3,27.7,5.7,41.7,7.5
	c20.1,2.5,40.3,3.4,60.6,2.7c10.9-0.3,21.7-1.3,32.5-2.7c25.3-3.2,50-8.9,74.2-16.9c12.7-4.2,25.1-9.1,37.2-14.6
	c1.9-0.9,3.9-1.4,6-0.8c3.9,1.1,5.7,5.1,4,8.8c-0.7,1.6-1.9,2.7-3.3,3.8c-11.5,9.1-23.9,16.8-37,23.5c-24.8,12.6-51,21.3-78.3,26.5
	C440.2,243.651,424.4,245.251,408.5,245.851z"/>
<path class="st0" d="M260.4,43.151c2.5-1.5,5.1-3.1,7.8-4.5c7.1-3.6,14.7-5.4,22.7-5c5.7,0.3,10.9,1.9,14.9,6.1
	c3.8,3.9,5.2,8.7,5.6,13.9c0.1,1.1,0.1,2.2,0.1,3.4c0,17.3,0,34.6,0,51.8c0,4.5-0.6,5.1-5.1,5.1c-4.1,0-8.2,0-12.2,0
	c-0.8,0-1.6,0-2.4-0.1c-1.3-0.2-2.2-1-2.4-2.3c-0.2-1.1-0.2-2.2-0.2-3.3c0-15.4,0-30.9,0-46.3c0-1.8,0-3.7-0.6-5.5
	c-1.1-3.3-3.4-5.2-6.8-5.5c-6-0.5-11.7,0.9-17.2,3.3c-0.9,0.4-1.2,0.9-1.2,1.8c0,0.6,0,1.1,0,1.7c0,17,0,33.9,0,50.9
	c0,1,0,1.9-0.2,2.9c-0.3,1.6-0.9,2.2-2.5,2.4c-1.5,0.1-3,0.1-4.6,0.1c-3.5,0-7,0-10.6,0c-3.7,0-4.5-0.9-4.5-4.6
	c0-15.8,0-31.5,0-47.3c0-1.8-0.1-3.5-0.5-5.2c-0.9-3.5-3.4-5.7-7-6c-6.1-0.5-11.9,0.9-17.5,3.4c-0.9,0.4-1.2,0.9-1.1,1.9
	c0,0.6,0,1.1,0,1.7c0,16.7,0,33.4,0,50.2c0,0.5,0,1,0,1.4c0,3.7-0.8,4.5-4.5,4.5c-4.5,0-9,0-13.4,0c-3.5,0-4.4-1-4.4-4.4
	c0-23.1,0-46.2,0-69.3c0-0.8,0-1.6,0.3-2.4c0.5-1.3,1.5-1.8,2.8-1.9c4.2,0,8.3,0,12.5,0c1.8,0,2.9,1.1,3.5,2.8
	c0.5,1.4,0.8,2.7,1.3,4.2c1,0,1.6-0.7,2.3-1.1c5.5-3.4,11.3-6.3,17.8-7.5c5-0.9,10-1.1,15,0c4.9,1.1,8.8,3.7,11.6,7.8
	c0.2,0.3,0.4,0.5,0.6,0.7C260.2,43.051,260.3,43.051,260.4,43.151z"/>
<path class="st1" d="M607.5,107.551c-0.9,0.2-1.3,0.9-2,1.3c-9.3,6.9-19.5,8.6-30.4,5.2c-8-2.4-13.5-8-17.3-15.3
	c-3.4-6.7-4.8-13.8-5-21.3c-0.2-7.9,0.5-15.7,3.5-23.1c3.1-7.7,7.9-14.2,15.6-17.8c11-5.1,21.9-4,32.3,2.1c0.7,0.4,1.2,1,2.1,1.1
	c0.5-0.7,0.2-1.4,0.2-2.1c0-10.2,0-20.5,0-30.7c0-0.6,0-1.1,0-1.7c0-3.8,0.7-4.5,4.5-4.5c4.6,0,9.3,0,13.9,0c3,0,3.8,0.8,3.9,3.8
	c0,1.8,0,3.5,0,5.3c0,32.6,0,65.3,0,97.9c0,0.7,0,1.4,0,2.2c-0.1,2.9-0.9,3.8-3.7,3.8c-3.5,0.1-7,0-10.6,0c-0.8,0-1.6,0-2.4,0
	c-1.9,0-2.9-1.1-3.5-2.7C608.3,109.951,608.2,108.651,607.5,107.551z"/>
<path class="st0" d="M345.2,80.951c-0.5,9,5,16.3,13.5,18c6.3,1.2,12.6,1,18.8-0.2c2.9-0.6,5.8-1.3,8.6-1.9c2.9-0.7,4.1,0.2,4.1,3.2
	c0,2.5-0.1,5,0,7.4c0.1,2.6-1.1,4-3.4,4.9c-3.8,1.4-7.7,2.6-11.8,3.2c-7.6,1.2-15.3,1.5-22.9-0.2c-13.3-2.8-22.1-10.7-25.6-24
	c-2.7-10.4-3.1-20.9,0.2-31.2c4.7-15.1,15-23.8,30.8-25.6c6.8-0.8,13.4-0.3,19.9,1.9c13.1,4.7,18.5,17.4,15,30
	c-1.4,5-4.7,8.6-9.2,11.2c-3.9,2.2-8.1,3.3-12.5,4c-7.6,1.1-15.1,1.2-22.7-0.3C347.3,81.151,346.3,81.051,345.2,80.951z"/>
<path class="st1" d="M663.9,80.851c0.2,2.3,0.6,4.2,1.1,6.1c1.8,6.8,6.4,10.7,13.2,12c6.9,1.3,13.7,0.8,20.5-0.7
	c2.2-0.5,4.3-1,6.5-1.6c2.9-0.7,4.1,0.3,4.2,3.2c0,2.4,0,4.8,0,7.2c0,3.1-0.7,4.1-3.6,5.2c-7,2.5-14.1,4.1-21.5,4.1
	c-5.1,0-10.1-0.2-15-1.5c-11.4-3.1-19.4-10-22.9-21.4c-3.4-11.1-3.9-22.4-0.4-33.5c5.2-16.8,18-25.3,34.8-25.7
	c5.1-0.1,10.1,0.3,14.9,1.9c8.6,2.9,14.3,8.5,16.4,17.5c0.8,3.6,0.8,7.3,0.1,11c-1.2,6-4.7,10.4-10.1,13.3c-5.2,2.8-11,3.9-16.8,4.3
	c-6.7,0.5-13.4,0.1-20-1.2C664.9,80.851,664.5,80.851,663.9,80.851z"/>
<path class="st1" d="M467.7,92.951c0.6-2,1.2-3.9,1.8-5.9c4.6-15.5,9.2-30.9,13.8-46.4c0.2-0.6,0.4-1.2,0.6-1.8c0.7-1.8,2-2.9,4-2.9
	c1.5,0,3,0,4.6,0c3.5,0,7,0,10.6,0c3.8,0,4.6,1.1,3.3,4.7c-2,5.3-4,10.6-6,15.9c-6.7,17.4-13.4,34.9-20.1,52.3
	c-0.2,0.6-0.5,1.2-0.7,1.8c-0.9,2.2-2.5,3.4-5,3.3c-4.4-0.1-8.8-0.1-13.2,0c-3.1,0.1-4.9-1.3-6-4.1c-2.5-6.6-5.1-13.3-7.6-19.9
	c-6-15.7-12.1-31.4-18.1-47.2c-0.5-1.3-1.1-2.5-1.3-3.9c-0.3-2,0.4-3,2.4-3c5.7-0.1,11.4,0,17,0c2.4,0,3.5,1.6,4.1,3.7
	c1.1,3.8,2.2,7.7,3.4,11.5c4.1,13.9,8.1,27.9,12.2,41.8C467.4,92.951,467.5,92.951,467.7,92.951z"/>
<path class="st0" d="M112.6,46.951c1-0.2,1.3-0.8,1.7-1.2c1.8-1.8,3.7-3.5,5.7-5.1c5.4-4.1,11.4-5.9,18.2-5.5
	c2.6,0.1,3.5,0.9,3.7,3.4c0.2,3.4,0.1,6.9,0.1,10.3c0,1.4,0.1,2.7-0.2,4.1c-0.4,1.8-1.1,2.5-2.9,2.7c-1.4,0.1-2.7,0-4.1-0.1
	c-6.7-0.6-13.2,0.7-19.5,2.8c-1.4,0.5-1.4,1.5-1.4,2.6c0,9.4,0,18.9,0,28.3c0,6.6,0,13.1,0,19.7c0,0.9,0,1.8-0.1,2.6
	c-0.2,1.4-0.9,2.1-2.4,2.3c-0.7,0.1-1.4,0.1-2.2,0.1c-4.3,0-8.6,0-13,0c-0.7,0-1.4,0-2.2-0.1c-1.4-0.3-2.3-1.1-2.4-2.5
	c-0.1-0.8-0.1-1.6-0.1-2.4c0-22.6,0-45.3,0-67.9c0-4.6,0.5-5.1,5.1-5.1c3.2,0,6.4,0,9.6,0c2.6,0,3.8,0.9,4.5,3.4
	C111.4,41.851,112,44.351,112.6,46.951z"/>
<path class="st0" d="M580.4,148.451c6.6,0.2,13.1,0.6,19.5,2.3c1.8,0.5,3.5,1.1,5.2,1.9c2.4,1.1,3.7,2.9,4.1,5.5
	c0.4,2.9,0.6,5.7,0.3,8.6c-1.5,17.2-6.4,33.4-15.4,48.2c-3.2,5.3-7,10.1-11.6,14.3c-1,0.9-2,1.7-3.2,2c-1.9,0.5-3.1-0.5-3.2-2.4
	c0-1.1,0.4-2,0.7-3c3.5-9.4,6.9-18.7,9.6-28.4c1.5-5.3,2.8-10.7,3.4-16.2c0.2-2,0.3-4,0.1-6c-0.3-3.6-2.1-6.1-5.6-7.3
	c-3.1-1.1-6.4-1.6-9.6-1.8c-9.2-0.5-18.4,0.1-27.5,1.2c-4,0.5-8.1,1-12.1,1.5c-1.3,0.1-2.5,0-3.2-1.2c-0.8-1.2-0.4-2.4,0.3-3.6
	c0.7-1.2,1.9-2,3-2.8c7.4-5.3,15.7-8.5,24.5-10.6C566.4,149.251,573.4,148.651,580.4,148.451z"/>
<path class="st1" d="M538.5,74.951c0,11.4,0,22.7,0,34.1c0,0.6,0,1.3,0,1.9c-0.2,2-1.1,2.9-3.1,3c-5.4,0.1-10.7,0.1-16.1,0
	c-2,0-2.9-1-3.1-2.9c-0.1-0.6-0.1-1.3-0.1-1.9c0-22.7,0-45.4,0-68.1c0-0.3,0-0.6,0-1c0.1-3.1,0.9-4,4-4c4.8,0,9.6,0,14.4,0
	c3.1,0,4,0.9,4,4c0,9.5,0,19,0,28.5C538.5,70.651,538.5,72.751,538.5,74.951z"/>
<path class="st0" d="M151.6,74.851c0-11.1,0-22.2,0-33.3c0-0.7,0-1.4,0-2.2c0.1-2.4,1-3.3,3.4-3.4c5.2-0.1,10.4-0.1,15.6,0
	c2.3,0,3,0.7,3.2,3c0.1,0.9,0.1,1.8,0.1,2.6c0,22.2,0,44.4,0,66.6c0,1.1-0.1,2.2-0.2,3.3c-0.2,1.3-1,2.1-2.4,2.3
	c-0.6,0.1-1.1,0.1-1.7,0.1c-4.6,0-9.3,0-13.9,0c-0.5,0-1,0-1.4-0.1c-1.6-0.3-2.4-1-2.7-2.6c-0.1-0.8-0.1-1.6-0.1-2.4
	C151.6,97.551,151.6,86.151,151.6,74.851z"/>
<path class="st1" d="M314.9-72.649c0,0.8,0,1.5,0,2.3c0,8.9,0,17.7,0,26.6c0,0.6,0,1.3,0,1.9c0,0.6-0.4,0.9-1.1,1.1
	c-3.8,0.7-4.6,0.1-4.6-3.8c0-11.4,0-22.9,0-34.3c0-0.5,0-1,0-1.4c0.1-1.7,0.2-1.9,2-1.9c5.7,0,4.4-0.5,7.2,3.9
	c5.5,8.8,10.9,17.7,16.4,26.5c0.4,0.7,0.9,1.3,1.7,1.9c0-0.6,0-1.2,0-1.8c0-9.1,0-18.2,0-27.3c0-0.6,0-1.1,0-1.7
	c-0.2-1.2,0.4-1.5,1.5-1.5c4.6,0,4-0.3,4,3.7c0,11.5,0,23,0,34.5c0,0.6,0,1.1,0,1.7c0,1.1-0.4,1.7-1.6,1.6c-0.1,0-0.2,0-0.2,0
	c-5.8-0.1-4.5,0.6-7.4-4c-5.4-8.6-10.7-17.3-16-25.9c-0.5-0.7-0.9-1.5-1.4-2.2C315.2-72.749,315-72.649,314.9-72.649z"/>
<path class="st1" d="M544.3-72.949c0,9.9,0,19.4,0,28.9c0,3.7,0.3,3.4-3.4,3.3c-2.2,0-2.3-0.1-2.3-2.3c0-12.3,0-24.6,0-36.9
	c0-2.2,0.1-2.3,2.3-2.2c5.2,0,4.1-0.4,6.6,3.6c5.6,9,11.1,17.9,16.6,26.9c0.4,0.6,0.7,1.4,1.6,2c0-1,0-1.8,0-2.6c0-9,0-17.9,0-26.9
	c0-0.6,0-1.1,0-1.7c-0.1-1.5,1-1.6,1.9-1.4c1.2,0.3,3-1,3.6,1.2c0.1,0.5,0,1.1,0,1.7c0,11.9,0,23.8,0,35.7c0,0.2,0,0.3,0,0.5
	c0,2.4,0,2.4-2.4,2.4c-4.8,0-4,0.6-6.6-3.6c-5.4-8.8-10.8-17.5-16.3-26.3C545.7-71.349,545.4-72.249,544.3-72.949z"/>
<path class="st1" d="M618.8-62.549c0.5,0.2,0.8,0.4,1.2,0.6c4.2,1.8,6.3,5.1,6.3,9.6c0,4.7-2.1,8.1-6.3,10.2
	c-1.8,0.9-3.7,1.4-5.8,1.4c-5,0-10.1,0-15.1,0c-1.8,0-1.9-0.1-1.9-2c0-12.5,0-25.1,0-37.6c0-1.6,0.2-1.8,1.8-1.8c4.6,0,9.1,0,13.7,0
	c2.1,0,4.1,0.6,5.9,1.6c4.6,2.6,6.5,8.1,4.6,13C622.4-65.249,620.7-63.849,618.8-62.549z"/>
<path class="st1" d="M494.9-61.349c0,6.1,0,12.2,0,18.2c0,2.4,0,2.4-2.4,2.4c-4,0-3.8,0.5-3.8-3.7c0-4.5,0-9,0-13.4
	c0-1.2-0.3-1.7-1.6-1.6c-5.8,0.1-11.7,0-17.5,0c-1.6,0-1.6,0-1.6,1.8c0,4.9,0,9.8,0,14.6c0,2.3,0,2.3-2.3,2.3
	c-4.2,0-3.9,0.5-3.9-3.8c0-11.4,0-22.9,0-34.3c0-0.4,0-0.8,0-1.2c0-2,0.1-2.1,2.2-2.1c4.6,0,3.9-0.3,3.9,3.7c0,4.1,0,8.2,0,12.2
	c0,1.7,0,1.8,1.7,1.8c5.8,0,11.5,0,17.3,0c1.7,0,1.7,0,1.7-1.7c0-4.4,0-8.8,0-13.2c0-2.8,0-2.8,2.7-2.8c4,0,3.4-0.1,3.4,3.5
	C494.9-72.849,494.9-67.149,494.9-61.349z"/>
<path class="st1" d="M201.5-66.949c0-4.5,0-9,0-13.4c0-1.7,0.1-1.8,1.7-1.8c5.1,0,4.3-0.5,4.3,4.1c0,6.9,0,13.8,0,20.6
	c0,2.1,0,4.2,0.6,6.2c1,3.1,3,5,6.1,5.8c1.9,0.5,3.8,0.6,5.7,0.3c4.8-0.7,7.7-3.9,7.9-8.8c0.2-3.2,0.1-6.4,0.1-9.6
	c0-5.5,0-11,0-16.5c0-1.9,0.1-2,2.1-2c4.8,0,4.1-0.3,4.1,3.8c0,7.4,0,14.9,0,22.3c0,1.3,0,2.6-0.2,3.8c-1.4,7.7-6.4,12.1-14.2,12.4
	c-2.1,0.1-4.3,0.1-6.4-0.3c-7.3-1.5-11.6-6.4-11.8-13.9C201.4-58.249,201.5-62.549,201.5-66.949L201.5-66.949z"/>
<path class="st1" d="M133-59.849c-0.6,0.7-0.3,1.5-0.3,2.3c0,4.8,0,9.6,0,14.4c0,2.4,0,2.4-2.4,2.4c-4.2,0-3.7,0.5-3.7-3.7
	c0-11.6,0-23.2,0-34.8c0-0.5,0-1,0-1.4c-0.1-1,0.4-1.4,1.4-1.5c4.5-0.4,4.7-0.3,4.7,4.2c0,3.8,0,7.7,0,11.5c0,0.7-0.1,1.4,0.2,2.1
	c0.9-0.3,1.3-1,1.8-1.6c4.5-4.8,9-9.6,13.4-14.5c1.2-1.4,2.6-2,4.4-1.9c0.9,0.1,1.8,0,2.6,0c1.1,0.1,1.3,0.6,0.6,1.6
	c-0.3,0.4-0.7,0.8-1.1,1.2c-4.8,5.1-9.6,10.1-14.3,15.2c-1.9,2-2,1.4,0.1,3.7c5.4,5.7,10.7,11.4,16.1,17.2c0.6,0.6,1.7,1.2,1.3,2.1
	c-0.4,1-1.6,0.5-2.4,0.5c-4.9,0-3.6,0.6-7-3c-4.5-4.8-9.1-9.7-13.6-14.5C134.2-58.849,133.8-59.549,133-59.849z"/>
<path class="st1" d="M179.2-82.149c0.4,0,0.8,0,1.2,0c2.1,0,2.1,0,2.9,2.1c4.5,12.2,9.1,24.4,13.6,36.6c0.2,0.4,0.3,0.9,0.4,1.4
	c0.3,1-0.1,1.5-1.2,1.5c-5.5-0.1-4.3,0.6-6-3.8c-0.8-2-1.4-4.1-2.1-6.1c-0.3-0.8-0.7-1.1-1.6-1.1c-5,0-9.9,0-14.9,0
	c-0.9,0-1.3,0.4-1.5,1.1c-0.9,2.7-1.7,5.3-2.7,7.9c-0.7,1.9-0.8,2-2.7,2c-1,0-1.9,0-2.9,0c-0.8,0-1.1-0.5-0.9-1.3
	c0.2-0.6,0.4-1.2,0.6-1.8c4.4-11.7,8.7-23.5,13.1-35.2C176-82.449,175.4-82.149,179.2-82.149z"/>
<path class="st2" d="M275.6-61.549c0-6,0-12,0-18c0-2.6,0-2.6,2.5-2.6c7,0,14.1,0,21.1,0c2.3,0,2.3,0,2.3,2.2c0,0.4,0,0.8,0,1.2
	c0.1,1.1-0.4,1.6-1.6,1.6c-2.6,0-5.1,0-7.7,0c-3,0-6.1,0-9.1,0c-1,0-1.4,0.3-1.4,1.4c0.1,3.3,0.1,6.6,0,9.8c0,1.1,0.4,1.3,1.4,1.3
	c4.2,0,8.5,0,12.7,0c2.4,0,2.4,0.1,2.5,2.4c0,0.2,0,0.3,0,0.5c0,2.1-0.1,2.2-2.2,2.2c-3.5,0-7,0-10.5,0c-3.8,0-3.8,0-3.8,3.9
	c0,2.8,0.1,5.6,0,8.4c0,1.3,0.5,1.6,1.7,1.6c5,0,10.1,0,15.1,0c0.6,0,1.3-0.1,1.9,0c1.7,0.4,0.9,1.8,1,2.7s0.4,2.1-1.1,2.2
	c-0.4,0-0.8,0-1.2,0c-7,0-14.1,0-21.1,0c-2.4,0-2.4,0-2.4-2.4C275.6-49.249,275.6-55.449,275.6-61.549z"/>
<path class="st2" d="M505-61.449c0-6.1,0-12.1,0-18.2c0-2.4,0.1-2.5,2.4-2.5c7.1,0,14.2,0,21.3,0c2.1,0,2.1,0,2.2,2.1
	c0,0.3,0,0.6,0,1c-0.1,1.8-0.1,1.9-2,1.9c-5.3,0-10.5,0-15.8,0c-1.9,0-1.9,0-1.9,2c0,2.8,0,5.6,0,8.4c0,2.2-0.2,2.1,2,2.1
	c4.1,0,8.2,0,12.2,0c2.2,0,2.3,0.1,2.3,2.3c0,0.4,0,0.8,0,1.2c0,1.1-0.5,1.6-1.6,1.6c-1.9,0-3.8,0-5.8,0c-2.6,0-5.1,0-7.7,0
	c-1.1,0-1.6,0.3-1.5,1.5c0.1,3.6,0,7.2,0,10.8c0,1.6,0,1.7,1.8,1.7c5,0,10.1,0,15.1,0c2.9,0,2.9,0,2.8,2.9c0,2-0.1,2-2,2
	c-7.3,0-14.5,0-21.8,0c-1.9,0-2-0.1-2-2.1C505-49.049,505-55.249,505-61.449z"/>
<path class="st1" d="M411.8-61.349c0-6.2,0-12.3,0-18.5c0-2.3,0-2.3,2.2-2.3c7.1,0,14.2,0,21.3,0c0.8,0,1.6-0.3,2.1,0.6
	c0.3,0.6,0.2,3.6-0.2,4c-0.5,0.5-1.2,0.3-1.8,0.4c-5,0-9.9,0-14.9,0c-0.5,0-1,0-1.4,0c-1.1-0.1-1.4,0.4-1.3,1.4c0,3.2,0.1,6.4,0,9.6
	c0,1.1,0.3,1.5,1.5,1.5c3.8-0.1,7.7,0,11.5,0c0.7,0,1.4,0,2.2,0c1,0,1.4,0.5,1.4,1.5c0,3.9,0.2,3.6-3.4,3.6c-3.8,0-7.7,0-11.5,0
	c-1.2,0-1.7,0.3-1.7,1.6c0.1,3.6,0.1,7.2,0,10.8c0,1.3,0.5,1.6,1.7,1.6c5.2,0,10.4,0,15.6,0c0.8,0,2-0.4,2.3,0.7
	c0.4,1.2,0.4,2.5-0.1,3.8c-0.3,0.7-1.1,0.5-1.7,0.5c-2.7,0-5.4,0-8.2,0c-4.3,0-8.6,0-12.9,0c-2.8,0-2.8,0-2.8-2.9
	C411.8-49.549,411.8-55.449,411.8-61.349z"/>
<path class="st1" d="M634-61.449c0-6.2,0-12.3,0-18.5c0-2.3,0-2.3,2.2-2.3c7.1,0,14.2,0,21.3,0c0.8,0,1.6-0.3,2.1,0.7
	c0.3,0.7,0.2,3.6-0.2,4c-0.5,0.5-1.2,0.3-1.8,0.3c-5,0-9.9,0-14.9,0c-0.6,0-1.1,0-1.7,0c-0.7,0-1,0.3-1,1c0,3.5,0,7,0,10.5
	c0,1.1,0.8,1,1.5,1c3.4,0,6.9,0,10.3,0c0.6,0,1.1,0,1.7,0c3.2,0,3.2,0,3.1,3.2c-0.1,1.7-0.2,1.9-2,1.9c-3.5,0-7,0-10.5,0
	c-0.5,0-1,0-1.4,0c-2.8,0-2.6-0.3-2.6,2.6c0,3.1,0,6.2,0,9.3c0,2,0,2,2,2c5.1,0,10.2,0,15.3,0c0.8,0,2-0.4,2.3,0.7
	c0.4,1.2,0.4,2.5-0.1,3.7c-0.3,0.7-1.1,0.5-1.7,0.5c-3.6,0-7.2,0-10.8,0s-7.2,0-10.8,0c-2.3,0-2.3,0-2.3-2.2
	C634-49.149,634-55.249,634-61.449z"/>
<path class="st0" d="M163.2,0.051c1.5-0.1,3.2,0.2,4.7,0.7c5.4,1.8,8.2,6.5,7.7,12.6c-0.5,5.3-4.2,9.3-9.5,10.2
	c-2.2,0.4-4.4,0.4-6.7,0c-5.7-1.1-9.9-5.3-9.5-12.5C150.5,3.951,155.2,0.051,163.2,0.051z"/>
<path class="st1" d="M527.4,0.051c2-0.2,4,0.2,5.9,1c4.1,1.8,6.4,4.8,6.8,9.3c0.8,9.1-5.3,13.7-13.4,13.5c-1.1,0-2.2-0.2-3.3-0.4
	c-6.2-1.5-9.4-6.3-8.8-13.2c0.5-5.5,4.8-9.6,10.7-10.1C526,0.051,526.7,0.051,527.4,0.051z"/>
<path class="st1" d="M244.2-61.449c0-6.2,0-12.3,0-18.5c0-2.3,0-2.3,2.2-2.3c6.7,0,13.4,0,20.1,0c2.2,0,2.2,0,2.2,2.1
	c0,0.5,0,1,0,1.4c0,1-0.4,1.5-1.4,1.4c-1.4,0-2.9,0-4.3,0c-3.8,0-7.5,0-11.3,0c-1.2,0-1.5,0.4-1.5,1.5c0.1,3.4,0.1,6.9,0,10.3
	c0,1.2,0.5,1.5,1.6,1.5c3.7,0,7.4,0,11,0c2.7,0,2.7,0,2.7,2.8c0,0.1,0,0.2,0,0.2c-0.1,1.8-0.1,1.9-1.9,1.9c-3.8,0-7.5,0-11.3,0
	c-2.1,0-2.1,0-2.1,2.1c0,4.6,0,9.1,0,13.7c0,2.5,0,2.5-2.3,2.5c-4.2,0-3.7,0.5-3.7-3.7C244.2-50.049,244.2-55.749,244.2-61.449z"/>
<path class="st3" d="M380.2-61.649c0-6.1,0-12.1,0-18.2c0-2.3,0.1-2.3,2.3-2.3c4.6,0,3.9-0.3,3.9,3.8c0,9.9,0,19.8,0,29.7
	c0,0.6,0,1.1,0,1.7c0,0.9,0.3,1.3,1.2,1.3c1.1,0,2.2,0,3.4,0c4.2,0,8.3,0,12.5,0c2.6,0,2.6,0,2.6,2.7c0,0.1,0,0.2,0,0.2
	c-0.1,1.9-0.1,2-2.1,2c-6.3,0-12.6,0-18.9,0c-1,0-2.1,0-3.1,0c-1.3,0.1-1.7-0.5-1.7-1.7c0-3,0-5.9,0-8.9
	C380.2-54.749,380.2-58.149,380.2-61.649z"/>
<path class="st1" d="M350.8-32.049c-2.8,0-2.9-0.1-1.9-2.8c6.1-16.3,12.2-32.5,18.4-48.8c0.9-2.4,0.9-2.4,3.5-2.4c0.6,0,1.3,0,1.9,0
	c1,0,1.3,0.5,1,1.4c-0.2,0.6-0.4,1.2-0.6,1.8c-6,16-12.1,31.9-18.1,47.9C353.8-32.049,353.8-32.049,350.8-32.049z"/>
<path class="st3" d="M451.7-61.649c0,6.2,0,12.3,0,18.5c0,2.4,0,2.4-2.4,2.4c-4,0-3.8,0.5-3.8-3.7c0-11.5,0-23,0-34.5
	c0-0.5,0-1,0-1.4c0.1-1.6,0.2-1.8,1.8-1.8c5.3,0,4.3-0.4,4.4,4C451.7-72.649,451.7-67.149,451.7-61.649z"/>
<path class="st3" d="M674.2-61.449c0,5.9,0,11.8,0,17.7c0,0.6,0,1.1,0,1.7c0,0.9-0.4,1.3-1.3,1.3c-1.1,0-2.2,0-3.4,0
	c-1.1,0-1.4-0.5-1.4-1.5c0-0.4,0-0.8,0-1.2c0-12.1,0-24.1,0-36.2c0-0.5,0-1,0-1.4c0-0.8,0.4-1.1,1.2-1.2c0.1,0,0.2,0,0.2,0
	c5.5,0,4.6-0.5,4.6,4.2C674.2-72.449,674.2-66.949,674.2-61.449z"/>
<path class="st4" d="M22.7,74.651c0-6,0.1-12,0-18c0-1.6,0.6-2.4,2-3.1c5.5-2.6,11.2-3.8,17.2-2.6c4.4,0.8,7.6,3.2,9.5,7.2
	c1.6,3.2,2.3,6.6,2.6,10.2c0.6,6.4,0.6,12.8-1.2,19c-0.8,3.1-2.2,5.8-4.6,8c-2.6,2.4-5.8,3.3-9.2,3.5c-5.1,0.3-10-0.8-14.6-3.2
	c-1.2-0.6-1.7-1.4-1.7-2.8C22.7,86.751,22.7,80.751,22.7,74.651z"/>
<path class="st4" d="M777.6,75.051c0.2,4.3-0.1,8.6-1.4,12.8c-0.6,2.1-1.5,4-2.8,5.8c-2.3,3.2-5.6,5-9.5,5.4
	c-1.9,0.2-3.8,0.2-5.7-0.2c-4.4-0.9-7.4-3.5-9.4-7.5c-1.6-3.1-2.3-6.5-2.7-9.9c-0.5-5.9-0.6-11.8,0.8-17.6c0.6-2.3,1.4-4.6,2.7-6.6
	c2.4-3.8,5.8-5.8,10.2-6.2c1.9-0.2,3.8-0.2,5.7,0.2c4.2,0.9,7.2,3.4,9.1,7.1c1.8,3.5,2.6,7.4,2.9,11.3
	C777.7,71.351,777.6,73.151,777.6,75.051z"/>
<path class="st4" d="M606.6,74.451c0,6.1,0,12.2,0,18.2c0,1.4-0.4,2.2-1.6,2.8c-4.9,2.6-10.1,3.9-15.7,3c-4.9-0.7-8.5-3.2-10.7-7.5
	c-1.7-3.2-2.4-6.6-2.8-10.1c-0.6-6.3-0.5-12.6,1.2-18.8c0.5-1.7,1.1-3.3,2-4.9c2.3-4,5.9-6.3,10.5-6.7c5.3-0.5,10.5,0.5,15.4,2.7
	c1.3,0.6,1.8,1.4,1.8,2.9C606.5,62.251,606.6,68.351,606.6,74.451z"/>
<path class="st4" d="M358.6,68.651c-4.4,0-8.1-0.4-11.8-0.9c-1.5-0.2-1.5-0.2-1.3-1.8c0.3-2.4,1-4.7,1.9-6.9c3-7.3,9.3-9.8,15.7-9.4
	c1.8,0.1,3.6,0.4,5.3,1.2c2.7,1.3,4.2,3.3,4.6,6.3c0.2,1.8,0.3,3.5-0.3,5.2c-1.2,3.6-4.1,5.1-7.6,5.8
	C362.8,68.651,360.4,68.851,358.6,68.651z"/>
<path class="st4" d="M677.6,68.651c-4.5,0-8.3-0.5-12.1-1c-0.9-0.1-1.3-0.5-1.1-1.4c0.7-3.9,1.6-7.7,4-10.9
	c3.7-4.9,8.8-6.3,14.6-5.7c0.5,0,0.9,0.2,1.4,0.2c7,1.1,8.7,6.7,7.4,12.1c-1,4-4.3,5.5-8,6.2
	C681.5,68.551,679.2,68.751,677.6,68.651z"/>
<path class="st4" d="M608.7-45.549c-1.4,0-2.9,0-4.3,0c-1,0-1.4-0.3-1.4-1.3c0-3.8,0-7.7,0-11.5c0-0.9,0.4-1.3,1.3-1.3
	c3.3,0.1,6.6,0,9.8,0.2c3.3,0.2,5.3,2.2,5.8,5.4c0.6,4.1-0.8,8.3-6.8,8.5C611.6-45.549,610.2-45.549,608.7-45.549L608.7-45.549z"/>
<path class="st4" d="M603-70.749c0-1.8,0-3.5,0-5.3c0-1,0.4-1.4,1.4-1.4c2.6,0.1,5.1,0,7.7,0.2c3.4,0.2,5.5,2.4,5.7,5.7
	c0.3,4-1.3,6.4-4.9,7.1c-3,0.6-6.1,0.2-9.1,0.3c-0.8,0-0.8-0.6-0.8-1.2C603-67.249,603-68.949,603-70.749z"/>
<path class="st5" d="M179.3-75.949c2.1,6,4.2,12,6.3,18c0.2,0.6,0.8,1.6-0.5,1.6c-4.2,0.1-8.4,0-12.9,0c2.3-6.7,4.5-13.2,6.7-19.6
	C179-75.849,179.2-75.949,179.3-75.949z"/>
</svg>
